HIERARCHY
ROOT Hips
{
	OFFSET 0.000000 0.000000 0.000000
	CHANNELS 6 Xposition Yposition Zposition Zrotation Yrotation Xrotation 
	JOINT LHipJoint
	{
		OFFSET 0.000000 0.000000 0.000000
		CHANNELS 3 Zrotation Yrotation Xrotation
		JOINT LeftUpLeg
		{
			OFFSET 1.363060 -1.794630 0.839290
			CHANNELS 3 Zrotation Yrotation Xrotation
			JOINT LeftLeg
			{
				OFFSET 2.448110 -6.726130 0.000000
				CHANNELS 3 Zrotation Yrotation Xrotation
				JOINT LeftFoot
				{
					OFFSET 2.562200 -7.039590 0.000000
					CHANNELS 3 Zrotation Yrotation Xrotation
					JOINT LeftToeBase
					{
						OFFSET 0.157640 -0.433110 2.322550
						CHANNELS 3 Zrotation Yrotation Xrotation
						End Site
						{
							OFFSET 0.000000 0.000000 0.000000
						}
					}
				}
			}
		}
	}
	JOINT RHipJoint
	{
		OFFSET 0.000000 0.000000 0.000000
		CHANNELS 3 Zrotation Yrotation Xrotation
		JOINT RightUpLeg
		{
			OFFSET -1.305520 -1.794630 0.839290
			CHANNELS 3 Zrotation Yrotation Xrotation
			JOINT RightLeg
			{
				OFFSET -2.542530 -6.985550 0.000000
				CHANNELS 3 Zrotation Yrotation Xrotation
				JOINT RightFoot
				{
					OFFSET -2.568260 -7.056230 0.000000
					CHANNELS 3 Zrotation Yrotation Xrotation
					JOINT RightToeBase
					{
						OFFSET -0.164730 -0.452590 2.363150
						CHANNELS 3 Zrotation Yrotation Xrotation
						End Site
						{
							OFFSET 0.000000 0.000000 0.000000
						}
					}
				}
			}
		}
	}
	JOINT LowerBack
	{
		OFFSET 0.000000 0.000000 0.000000
		CHANNELS 3 Zrotation Yrotation Xrotation
		JOINT Spine
		{
			OFFSET 0.028270 2.035590 -0.193380
			CHANNELS 3 Zrotation Yrotation Xrotation
			JOINT Spine1
			{
				OFFSET 0.056720 2.048850 -0.042750
				CHANNELS 3 Zrotation Yrotation Xrotation
				JOINT Neck
				{
					OFFSET 0.000000 0.000000 0.000000
					CHANNELS 3 Zrotation Yrotation Xrotation
					JOINT Neck1
					{
						OFFSET -0.054170 1.746240 0.172020
						CHANNELS 3 Zrotation Yrotation Xrotation
						JOINT Head
						{
							OFFSET 0.104070 1.761360 -0.123970
							CHANNELS 3 Zrotation Yrotation Xrotation
							End Site
							{
								OFFSET 0.000000 0.000000 0.000000
							}
						}
					}
				}
				JOINT LeftShoulder
				{
					OFFSET 0.000000 0.000000 0.000000
					CHANNELS 3 Zrotation Yrotation Xrotation
					JOINT LeftArm
					{
						OFFSET 3.362410 1.200890 -0.311210
						CHANNELS 3 Zrotation Yrotation Xrotation
						JOINT LeftForeArm
						{
							OFFSET 4.983000 -0.000000 -0.000000
							CHANNELS 3 Zrotation Yrotation Xrotation
							JOINT LeftHand
							{
								OFFSET 3.483560 -0.000000 -0.000000
								CHANNELS 3 Zrotation Yrotation Xrotation
								JOINT LeftFingerBase
								{
									OFFSET 0.000000 0.000000 0.000000
									CHANNELS 3 Zrotation Yrotation Xrotation
									JOINT LeftHandIndex1
									{
										OFFSET 0.715260 -0.000000 -0.000000
										CHANNELS 3 Zrotation Yrotation Xrotation
										End Site
										{
											OFFSET 0.000000 0.000000 0.000000
										}
									}
								}
								JOINT LThumb
								{
									OFFSET 0.000000 0.000000 0.000000
									CHANNELS 3 Zrotation Yrotation Xrotation
									End Site
									{
										OFFSET 0.000000 0.000000 0.000000
									}
								}
							}
						}
					}
				}
				JOINT RightShoulder
				{
					OFFSET 0.000000 0.000000 0.000000
					CHANNELS 3 Zrotation Yrotation Xrotation
					JOINT RightArm
					{
						OFFSET -3.136600 1.374050 -0.404650
						CHANNELS 3 Zrotation Yrotation Xrotation
						JOINT RightForeArm
						{
							OFFSET -5.241900 -0.000000 -0.000000
							CHANNELS 3 Zrotation Yrotation Xrotation
							JOINT RightHand
							{
								OFFSET -3.444170 -0.000000 -0.000000
								CHANNELS 3 Zrotation Yrotation Xrotation
								JOINT RightFingerBase
								{
									OFFSET 0.000000 0.000000 0.000000
									CHANNELS 3 Zrotation Yrotation Xrotation
									JOINT RightHandIndex1
									{
										OFFSET -0.622530 -0.000000 -0.000000
										CHANNELS 3 Zrotation Yrotation Xrotation
										End Site
										{
											OFFSET 0.000000 0.000000 0.000000
										}
									}
								}
								JOINT RThumb
								{
									OFFSET 0.000000 0.000000 0.000000
									CHANNELS 3 Zrotation Yrotation Xrotation
									End Site
									{
										OFFSET 0.000000 0.000000 0.000000
									}
								}
							}
						}
					}
				}
			}
		}
	}
}
MOTION
Frames: 11
Frame Time: 0.008333
9.148457 15.977947 -9.460066 -153.107883 -85.375103 140.815137 10.655482 1.050650 -2.427256 -32.985213 5.628192 2.860672 7.653496 10.593067 34.958706 -4.695154 -19.841965 -26.227211 0.577300 4.865400 13.525200 -6.494611 -1.872307 0.920472 21.499580 -3.218449 -5.961816 -24.915611 -18.883619 103.988637 -0.310106 2.599162 -1.823639 -0.283200 -3.422600 9.457700 -0.641071 2.237340 3.507574 4.632733 1.637467 28.559272 -0.067974 2.290231 -10.432796 -7.128108 2.677114 -22.338238 0.086355 3.691316 49.493220 2.516800 -0.430700 16.888900 1.001850 0.066732 1.263103 -94.687746 7.926581 11.819141 25.070977 -35.496976 -4.754783 2.941823 5.350612 -5.102148 26.485413 27.180771 9.195400 -7.125000 0.000000 0.000000 -6.026600 53.841700 -1.313700 -1.831315 -0.700335 -0.048447 90.263735 -4.377854 8.215644 -20.229105 27.627176 -3.048537 -2.093910 0.002848 -8.915785 -24.956469 12.300090 -5.078900 7.125000 0.000000 0.000000 3.010400 -16.833000 2.012400 
9.089765 15.994110 -9.464490 -155.114050 -85.738350 142.745732 10.751729 0.950325 -2.654537 -33.450765 5.858215 3.792989 7.520858 10.425233 34.036954 -4.614210 -19.463999 -25.790780 0.602700 4.969600 13.821700 -6.319348 -2.077194 1.249547 20.879027 -2.909314 -7.979888 -25.648765 -18.667494 106.172684 -0.332264 2.323788 -2.425699 -0.118500 -2.219400 6.112300 -1.197211 2.210787 3.761361 4.562940 1.552378 28.674696 0.281722 2.312052 -10.608716 -7.096340 2.753521 -22.425422 -0.127660 3.894198 49.437479 2.488100 -0.389100 16.879500 0.959963 0.159893 1.263816 -94.575775 7.678406 11.847377 25.657239 -36.279454 -4.989443 2.752718 5.119695 -4.516792 24.920276 25.900200 8.210900 -7.125000 0.000000 0.000000 -6.982600 52.401400 -1.277100 -1.827208 -0.725055 -0.058764 90.182460 -4.243130 8.225191 -20.302287 27.786474 -3.079300 -2.085956 0.009728 -8.252445 -25.087604 12.098101 -5.036300 7.125000 0.000000 0.000000 2.906900 -17.018500 1.931300 
9.030350 16.015330 -9.464490 -152.496176 -85.827896 140.129947 10.822823 0.842760 -2.911334 -33.390785 6.021201 4.638088 7.426865 10.278981 33.256262 -4.652176 -19.292020 -25.255219 0.701700 5.354500 14.922400 -6.231653 -2.313265 1.599748 20.860137 -2.729516 -10.120701 -26.334033 -18.430641 108.125095 -0.246703 2.497781 -3.575149 -0.038800 -1.271100 3.494900 -1.312059 2.166966 4.016719 4.909422 1.411433 28.704797 0.208552 2.287606 -10.772229 -7.493443 2.717639 -22.799813 0.191814 3.898987 49.750482 2.672900 -0.385100 17.078300 0.867481 0.240017 1.279390 -94.319095 7.508699 12.521039 26.432772 -37.285931 -5.323459 2.651338 5.055114 -5.230418 24.803428 25.441737 8.044800 -7.125000 0.000000 0.000000 -6.934500 51.999300 -1.199800 -1.818873 -0.759051 -0.052558 90.074595 -4.171576 8.244670 -20.464233 28.021854 -3.120663 -1.986924 -0.021287 -7.799681 -24.209684 11.605242 -4.667900 7.125000 0.000000 0.000000 3.437100 -17.574800 2.242900 
8.970123 16.038355 -9.459615 -151.184796 -85.875507 138.881675 10.926556 0.757657 -3.175737 -33.350115 6.441057 5.343011 7.313822 10.117595 32.419381 -4.768236 -19.294320 -24.627608 0.710000 5.385200 15.010700 -6.081803 -2.548176 1.969634 20.560767 -2.465513 -12.423441 -27.002954 -18.169233 110.075935 -0.190045 2.570580 -4.829996 -0.047600 -1.407800 3.871500 -1.597452 1.945046 4.211762 5.383252 1.004358 28.684149 0.208272 2.138154 -10.897760 -8.107773 2.846086 -23.155205 0.387861 4.273307 50.000588 2.934600 -0.288900 17.225500 0.747294 0.294217 1.292355 -94.490926 7.443845 12.347531 27.240909 -38.368783 -5.698053 2.575829 4.955658 -5.743076 24.801836 24.860193 7.886500 -7.125000 0.000000 0.000000 -6.747800 51.512600 -1.086500 -1.818306 -0.803987 -0.050630 89.695731 -4.075442 8.871679 -20.631706 28.214737 -3.153138 -1.879260 -0.002861 -7.104401 -23.244905 11.525726 -4.441200 7.125000 0.000000 0.000000 4.035900 -17.732600 2.621400 
8.912515 16.058220 -9.456996 -155.403338 -86.204302 143.168526 11.093211 0.768129 -3.366486 -33.841438 6.992953 5.853352 7.180276 9.969332 31.613516 -4.897493 -19.370772 -23.951519 0.624300 5.056000 14.068400 -5.751186 -2.707565 2.317710 19.347985 -2.267672 -14.835949 -27.650421 -17.881935 112.051366 -0.105491 2.853686 -6.143359 -0.117200 -2.206800 6.077600 -2.963830 1.585567 4.258276 6.304013 0.234331 28.783239 0.813929 1.945613 -10.822457 -8.569614 3.314074 -23.419161 -0.374247 5.462288 49.848929 3.009800 -0.038100 17.215000 0.559354 0.372805 1.278936 -95.253066 7.322349 11.552632 28.123816 -39.578955 -6.135342 2.493399 4.800553 -6.270231 24.763165 23.952397 7.615100 -7.125000 0.000000 0.000000 -6.510600 50.732500 -0.923000 -1.947316 -0.855355 -0.061949 88.702900 -3.703495 10.573201 -20.765693 28.356605 -3.194060 -1.850034 -0.018833 -6.926187 -23.045676 11.316192 -4.330700 7.125000 0.000000 0.000000 4.151400 -17.948100 2.677100 
8.854636 16.077363 -9.456725 -159.232311 -86.584556 147.071670 11.225978 0.773048 -3.561226 -34.240811 7.622912 6.318008 7.053146 9.844470 30.886080 -5.028153 -19.438181 -23.240118 0.551100 4.755800 13.213400 -5.433183 -2.882273 2.690032 18.265757 -2.054747 -17.253427 -28.239714 -17.593223 113.857850 0.042575 3.582313 -7.810679 -0.097600 -2.015000 5.547100 -4.048738 1.340261 4.258376 6.927418 -0.317250 28.931788 1.353062 1.822434 -10.696636 -8.636528 3.673703 -23.626880 -1.157180 6.353668 49.704159 2.942100 0.140500 17.244500 0.410928 0.460910 1.262266 -95.559856 7.142413 11.699595 29.063168 -40.742938 -6.602404 2.419908 4.718204 -7.414630 25.056636 23.323453 7.534700 -7.125000 0.000000 0.000000 -6.088000 50.253600 -0.790900 -2.043458 -0.894329 -0.075004 87.981165 -3.301438 11.720150 -20.928963 28.587918 -3.257645 -1.845152 -0.048782 -7.217597 -23.068612 11.167303 -4.287900 7.125000 0.000000 0.000000 4.129900 -18.082000 2.651000 
8.794770 16.101381 -9.457989 -158.115019 -86.827744 145.988712 11.279878 0.675707 -3.808862 -34.232749 8.045251 6.950588 6.954886 9.733265 30.251155 -5.122498 -19.432111 -22.654356 0.503300 4.547900 12.623400 -5.242911 -3.151452 3.112837 17.867352 -1.724563 -19.580261 -28.739222 -17.336073 115.380507 0.139697 4.187511 -9.588773 -0.095000 -1.987800 5.471900 -4.134202 1.264236 4.397272 6.868318 -0.439569 29.034137 1.420637 1.774138 -10.797798 -8.532848 3.706334 -23.741129 -1.219321 6.417637 49.761446 2.919200 0.161400 17.310600 0.351864 0.527543 1.258348 -95.189750 7.027653 12.550187 29.924621 -41.693621 -7.024931 2.369850 4.692617 -8.269051 25.353576 23.133364 7.592000 -7.125000 0.000000 0.000000 -5.773900 50.165900 -0.737400 -1.993947 -0.914474 -0.077080 87.982009 -3.195359 11.725665 -21.186518 28.987212 -3.348381 -1.782505 -0.068430 -7.394678 -22.542308 11.111482 -4.170100 7.125000 0.000000 0.000000 4.456600 -18.164400 2.853900 
8.734723 16.125671 -9.460517 -161.069223 -86.967798 149.078792 11.396133 0.701317 -4.000912 -34.439195 8.287719 7.355187 6.887507 9.665220 29.804444 -5.250883 -19.518809 -22.056860 0.486900 4.474300 12.415000 -4.934777 -3.356630 3.512992 17.200552 -1.428054 -22.058240 -29.152384 -17.087000 116.734075 0.196100 4.665823 -10.957644 -0.117500 -2.209500 6.084900 -5.045796 1.114713 4.478486 7.571826 -0.864674 28.981441 1.788833 1.702736 -10.829311 -8.956706 3.909611 -23.845216 -1.422989 6.952154 49.652648 3.035400 0.275400 17.263100 0.184497 0.592193 1.254919 -95.475407 7.054607 12.411784 30.898946 -42.794411 -7.524769 2.282268 4.630815 -8.580698 25.186377 22.982247 7.521000 -7.125000 0.000000 0.000000 -5.842700 50.052300 -0.729900 -2.036531 -0.921577 -0.065064 87.426506 -3.111363 12.680449 -21.495349 29.384223 -3.458892 -1.751130 -0.103769 -7.793633 -22.319094 11.015216 -4.101100 7.125000 0.000000 0.000000 4.592500 -18.256300 2.932100 
8.675851 16.147974 -9.465303 -163.122096 -87.292124 151.199920 11.375490 0.601586 -4.158108 -34.533517 8.594069 7.679980 6.817357 9.596418 29.464098 -5.376571 -19.771956 -21.838146 0.290600 3.466400 9.580000 -4.739571 -3.716671 4.044030 16.697312 -1.080833 -24.573067 -29.498259 -16.869915 117.899195 0.267008 5.295897 -12.094137 -0.096600 -2.004900 5.519200 -2.593897 1.739182 4.418200 3.787246 0.792351 29.656680 1.272231 2.096698 -11.122851 -7.131773 3.035759 -24.033507 -0.823711 4.905938 49.481992 2.507400 -0.139500 17.334300 0.540689 0.685352 1.226274 -92.700531 6.458855 16.008818 31.888423 -43.595120 -7.975576 2.224288 4.654048 -9.427947 25.299228 22.954943 7.553200 -7.125000 0.000000 0.000000 -5.736200 50.052000 -0.716400 -1.532703 -0.942036 -0.103483 89.617156 -3.225205 9.827947 -21.800168 30.122944 -3.624093 -1.760567 -0.089821 -7.811720 -22.795750 11.211178 -4.272600 7.125000 0.000000 0.000000 4.267300 -18.021100 2.745500 
8.620229 16.171360 -9.468825 -149.316084 -87.466842 137.524757 11.330880 0.343155 -4.509369 -33.963972 8.713953 8.247105 6.758320 9.526120 29.115275 -5.440754 -19.886499 -21.863461 0.134400 2.362900 6.509800 -4.742223 -4.164522 4.532948 17.321597 -0.313780 -26.860456 -29.786158 -16.718445 118.735741 0.372309 6.128733 -12.927486 -0.224700 -3.051000 8.420700 -4.052812 1.101194 4.556405 6.638908 -0.649534 29.419011 1.411084 1.665496 -11.036443 -8.167598 3.650493 -23.876452 -1.617928 6.451549 49.113451 2.706000 0.201800 17.106200 0.168108 0.674966 1.220375 -93.804381 6.651470 14.756159 32.901611 -44.751641 -8.550670 2.160494 4.579637 -9.855593 25.397817 22.749347 7.556900 -7.125000 0.000000 0.000000 -5.564400 49.942300 -0.679800 -1.814743 -1.006000 -0.093600 88.168364 -3.043618 12.099880 -22.129613 30.420504 -3.741990 -1.799026 -0.132963 -8.587504 -23.248943 11.192941 -4.365100 7.125000 0.000000 0.000000 3.978500 -17.983200 2.562000 
8.567948 16.188336 -9.469457 -143.852930 -87.880560 132.308202 11.293662 0.209258 -4.770205 -34.087377 8.561190 8.599772 6.752923 9.492324 28.848892 -5.387843 -19.556752 -21.419270 0.160300 2.579600 7.110300 -4.559882 -4.584748 5.091868 16.871939 0.458627 -29.645883 -30.054645 -16.537127 119.685961 0.522939 7.173134 -13.185955 -0.545300 -4.730800 13.142300 -4.106864 0.895304 4.641425 6.618598 -0.911144 29.374715 1.404994 1.513956 -11.242779 -8.187280 3.727016 -23.805787 -1.716466 6.617975 49.009811 2.703700 0.261500 17.013200 0.107381 0.692680 1.214029 -93.430470 6.637029 15.184423 33.854459 -45.650648 -9.046230 2.028887 4.539887 -10.168787 24.763330 22.638661 7.332800 -7.125000 0.000000 0.000000 -6.051000 49.766800 -0.713400 -1.736124 -1.047718 -0.093040 88.004233 -3.130961 12.753402 -22.529985 30.948613 -3.903690 -1.779479 -0.187800 -9.340563 -23.185358 11.027243 -4.303100 7.125000 0.000000 0.000000 4.010500 -18.128400 2.569900 
